<svg width="180" height="124" viewBox="0 0 180 124" fill="none" xmlns="http://www.w3.org/2000/svg">
<path d="M61.5772 69.5238L66.8562 114.566H64.2167L58.9377 68.7397L61.5772 69.5238Z" fill="url(#paint0_linear)"/>
<path d="M1.32021 67.3921L58.9375 68.7399L64.2166 114.566L5.12507 111.871L0.00837053 68.8426C-0.0787334 68.069 0.533633 67.3921 1.32021 67.3921Z" fill="url(#paint1_linear)"/>
<path d="M91.6037 48.7464C91.9435 48.2342 91.9993 47.5864 91.7451 47.0274C88.6159 40.1419 88.5233 34.5345 89.3715 30.4428C89.4119 30.3703 89.4535 30.2954 89.4974 30.2147C89.4974 30.2147 92.1217 20.9565 111.254 24.5746C113.051 24.9149 114.582 26.0516 115.431 27.6479C116.357 29.388 118.337 31.7443 122.563 33.5616C123.693 34.0469 124.667 34.8269 125.403 35.7999L125.97 36.5494C125.97 36.5494 128.227 39.6882 128.762 50.0375C128.055 59.0782 118.83 72.1371 112.421 71.9125C112.364 71.9102 112.306 71.9102 112.249 71.9055C105.833 71.4377 100.606 63.018 99.6559 60.4453C98.7055 57.8725 93.4784 59.6267 90.0332 57.5217C87.2854 55.8413 90.2779 50.7438 91.6037 48.7464Z" fill="url(#paint2_linear)"/>
<path d="M112.42 71.9106C118.829 72.1351 128.055 59.0762 128.761 50.0355C128.226 39.6861 125.969 36.5474 125.969 36.5474L126.784 34.4203C127.156 33.4497 127.661 32.5352 128.288 31.7072C128.577 31.3272 128.888 30.9635 129.229 30.6243C131.084 28.7767 134.014 27.219 136.898 31.2664C136.898 31.2664 140.225 35.1254 135.045 46.4629C134.973 46.6219 134.888 46.774 134.808 46.9295C134.587 47.3517 134.106 49.0649 137.293 53.3309C137.346 53.4022 137.412 53.463 137.452 53.5437C141.887 62.4897 147.114 70.4418 147.114 70.4418L118.008 101.197L112.418 71.9129L112.42 71.9106Z" fill="url(#paint3_linear)"/>
<path d="M148.363 18.8119C152.117 37.6161 139.143 51.469 137.293 53.3307C134.106 49.0658 134.587 47.3515 134.808 46.9293C134.889 46.7749 134.973 46.6217 135.045 46.4627C140.225 35.1252 136.899 31.2662 136.899 31.2662C136.384 30.5458 135.87 30.0032 135.359 29.6079C140.674 21.2174 143.683 14.2243 145 10.8154C147.573 15.0043 148.363 18.8119 148.363 18.8119Z" fill="url(#paint4_linear)"/>
<path d="M84.1518 20.6577C87.2548 19.7818 90.6264 17.2921 90.6264 17.2921L121.277 0.335618C134.405 -1.56819 141.424 4.99223 145 10.8159C143.683 14.2248 140.674 21.2179 135.359 29.6084C133.004 27.7841 130.754 29.1056 129.229 30.6246C128.888 30.9638 128.577 31.3274 128.288 31.7075C127.661 32.5355 127.156 33.4499 126.784 34.4205L125.969 36.5477L125.402 35.7981C124.666 34.824 123.692 34.0452 122.562 33.5599C122.417 33.4979 122.274 33.4336 122.134 33.3704C121.644 33.1471 121.184 32.9167 120.755 32.6805C117.748 31.0269 116.213 29.1173 115.43 27.6461C114.581 26.051 113.051 24.9132 111.253 24.5729C92.1209 20.9547 89.4966 30.213 89.4966 30.213C89.4526 30.2925 89.411 30.3685 89.3707 30.441C89.3837 30.3779 89.3968 30.3147 89.4099 30.2516C85.8459 28.6074 83.7918 26.3504 82.6193 24.4548C81.7271 23.0106 82.4993 21.1243 84.1518 20.6577Z" fill="url(#paint5_linear)"/>
<path d="M91.8216 38.3496C92.2137 38.1648 92.6235 38.0525 93.0334 37.9929C94.3342 37.8035 95.6387 38.1438 96.4061 38.4116C97.4931 39.3003 98.5837 40.6089 99.4794 42.1981C99.7693 42.7127 100.022 43.2284 100.24 43.7383L95.0827 41.6286L91.5365 40.1785C91.5175 39.4687 91.6114 38.8454 91.8216 38.3496Z" fill="#F6F8F8"/>
<path d="M100.609 41.1945L120.755 32.6797C121.184 32.9159 121.644 33.1463 122.134 33.3696L101.168 42.2315C102.814 45.5782 102.917 48.8134 101.322 49.6848L100.165 50.3783C101.253 49.6708 101.464 47.7681 100.857 45.5088L91.7371 41.7491C91.6172 41.1937 91.5494 40.6651 91.5364 40.1786L100.24 43.7383C100.022 43.2285 99.7703 42.7127 99.4793 42.1982C98.5835 40.609 97.493 39.3004 96.406 38.4116C95.6385 38.1438 94.3341 37.8035 93.0333 37.993C92.6234 38.0526 92.2135 38.1649 91.8215 38.3497C92.0104 37.9041 92.2943 37.5626 92.6745 37.3556L93.9207 36.675C94.3555 36.4377 94.8758 36.3944 95.4437 36.5183C97.0749 36.8755 99.0992 38.6248 100.609 41.1945Z" fill="url(#paint6_linear)"/>
<path d="M91.7369 41.75C91.997 42.9533 92.5019 44.283 93.2456 45.6032C93.3333 45.7587 93.4228 45.9115 93.5139 46.0615C92.7162 46.294 91.5133 46.7169 91.075 47.2525C90.8695 47.504 90.9099 47.8723 91.1653 48.0746C91.2734 48.1612 91.4053 48.2033 91.536 48.2033C91.7094 48.2033 91.8817 48.1284 91.9993 47.9858C92.2043 47.7349 93.2589 47.3355 94.1942 47.0874C96.1434 49.7842 98.5801 51.2488 100.05 50.4458L100.163 50.3779C101.251 49.6705 101.463 47.7678 100.856 45.5085L91.7369 41.75Z" fill="url(#paint7_linear)"/>
<path d="M107.912 61.7882C108.006 61.7882 108.101 61.766 108.19 61.7204C108.274 61.6771 110.253 60.6328 112.341 58.577C115.122 55.8394 116.753 52.6001 117.058 49.21C117.086 48.8884 116.845 48.6042 116.518 48.5762C116.193 48.5469 115.903 48.7855 115.874 49.1071C115.2 56.6393 107.709 60.648 107.633 60.6866C107.343 60.8386 107.234 61.1918 107.387 61.4771C107.494 61.6759 107.7 61.7882 107.912 61.7882Z" fill="url(#paint8_linear)"/>
<path d="M170.749 83.4697C175.33 87.71 177.291 91.6077 177.291 91.6077C185.251 104.939 173.133 123.182 173.133 123.182H158.154C171.408 106.579 171.432 90.1284 170.749 83.4697Z" fill="url(#paint9_linear)"/>
<path d="M105.892 90.6724C107.359 89.7907 111.061 90.2281 113.242 90.5906L113.622 109.734L141.843 83.539L129.767 90.6724L126.558 87.8495L146.281 69.1424L144.104 65.6084L155.075 74.6515C162.077 76.6933 167.199 80.1851 170.748 83.47C171.431 90.1275 171.407 106.578 158.152 123.182H77.1425C77.1425 123.182 103.754 91.9588 105.892 90.6724Z" fill="url(#paint10_linear)"/>
<path d="M106.048 70.6113L102.639 72.8905L107.912 73.8331L109.496 71.9129L106.048 70.6113Z" fill="#C8908C"/>
<path d="M141.843 83.5396L113.622 109.734L113.242 90.5911C114.241 90.7572 114.921 90.9069 114.921 90.9069L117.162 96.7621L126.558 87.85L129.767 90.673L141.843 83.5396Z" fill="url(#paint11_linear)"/>
<path d="M102.328 73.1099L99.4129 75.2359L105.655 76.7573L107.199 74.5354L102.328 73.1099Z" fill="#C8908C"/>
<path d="M98.3564 76.0386L95.4375 78.3458L99.9768 80.0052L105.535 79.914V77.1074L98.3564 76.0386Z" fill="#C8908C"/>
<path d="M103.873 78.1599C103.869 78.1599 101.964 78.1599 101.96 78.1599L95.9143 77.9611C95.2799 78.4721 94.6313 79.0019 93.9684 79.5538C93.7759 79.714 93.5823 79.8708 93.3875 80.0275C92.6236 80.6449 89.3578 83.7368 93.5372 88.6835C97.056 92.8489 96.5916 93.2665 97.4434 93.6746C98.0944 93.9868 99.1647 94.071 99.3453 93.381C99.3072 93.4979 99.3761 93.2617 99.3453 93.381C99.3453 93.381 100.19 87.8251 99.0019 86.734C97.8139 85.643 102.451 85.954 100.785 94.3937C100.843 94.6065 100.897 94.8065 100.943 94.9913C102.038 99.2971 102.341 103.76 101.871 108.174C101.131 115.117 100.461 123.123 101.191 124H127.542C127.542 124 123.864 107.088 120.476 96.7758C119.56 93.9879 119.033 91.0925 118.917 88.1654C118.613 80.4438 117.859 65.9267 116.465 65.4121C116.465 65.4121 112.537 66.3044 104.766 71.4416L107.99 72.5841L103.611 72.2169C102.799 72.7712 101.947 73.37 101.058 74.0155L106.486 75.1171L100.144 74.6867C99.0673 75.4843 97.9399 76.3473 96.7578 77.284L104.11 78.1564" fill="url(#paint12_linear)"/>
<path d="M99.0013 86.7347C97.8133 85.6436 102.45 85.9547 100.784 94.3943C100.731 94.199 100.672 93.9921 100.605 93.771C100.054 91.9386 99.6155 92.5478 99.3446 93.3816C99.3446 93.3816 100.189 87.8269 99.0013 86.7347Z" fill="#C8908C"/>
<path d="M75.166 43.3481L74.9804 40.7306C74.7405 39.0324 75.4212 37.3344 76.7697 36.2673L78.7143 34.4968L75.745 34.5318C74.1497 34.6681 72.5897 34.0128 71.5738 32.7804L69.8267 30.963L69.9466 33.4762C70.1444 35.0584 69.5468 36.6362 68.3489 37.6943L66.2784 39.8143L68.9066 39.6294C70.6118 39.3905 72.3167 40.0684 73.3883 41.4114L75.166 43.3481Z" fill="#CCD5EB"/>
<defs>
<linearGradient id="paint0_linear" x1="58.8719" y1="68.7397" x2="67.6003" y2="109.19" gradientUnits="userSpaceOnUse">
<stop stop-color="#334163"/>
<stop offset="1" stop-color="#1C2539"/>
</linearGradient>
<linearGradient id="paint1_linear" x1="0.000115463" y1="67.3921" x2="62.1565" y2="97.9195" gradientUnits="userSpaceOnUse">
<stop stop-color="#6F7C9B"/>
<stop offset="1" stop-color="#384461"/>
</linearGradient>
<linearGradient id="paint2_linear" x1="126.54" y1="57.957" x2="89.4279" y2="30.8556" gradientUnits="userSpaceOnUse">
<stop stop-color="#F3C6C3"/>
<stop offset="1" stop-color="#FFE1DF"/>
</linearGradient>
<linearGradient id="paint3_linear" x1="114.36" y1="57.283" x2="145.457" y2="68.8224" gradientUnits="userSpaceOnUse">
<stop stop-color="#E9ABA5"/>
<stop offset="1" stop-color="#F8CAC7"/>
</linearGradient>
<linearGradient id="paint4_linear" x1="137.367" y1="25.6088" x2="138.038" y2="53.2396" gradientUnits="userSpaceOnUse">
<stop stop-color="#28263D"/>
<stop offset="1" stop-color="#6C6A89"/>
</linearGradient>
<linearGradient id="paint5_linear" x1="138.721" y1="23.5872" x2="82.5558" y2="22.9077" gradientUnits="userSpaceOnUse">
<stop stop-color="#42405C"/>
<stop offset="1" stop-color="#0A0720"/>
</linearGradient>
<linearGradient id="paint6_linear" x1="121.127" y1="31.6741" x2="92.7492" y2="45.2427" gradientUnits="userSpaceOnUse">
<stop stop-color="#C7D5FA"/>
<stop offset="1" stop-color="#A9BDF4"/>
</linearGradient>
<linearGradient id="paint7_linear" x1="91.3524" y1="43.1307" x2="99.4423" y2="50.5769" gradientUnits="userSpaceOnUse">
<stop stop-color="white"/>
<stop offset="1" stop-color="#E2E2E2"/>
</linearGradient>
<linearGradient id="paint8_linear" x1="117.066" y1="48.5224" x2="107.645" y2="62.0371" gradientUnits="userSpaceOnUse">
<stop stop-color="#C8908C"/>
<stop offset="1" stop-color="#9A706C"/>
</linearGradient>
<linearGradient id="paint9_linear" x1="169.848" y1="99.7399" x2="181.344" y2="103.135" gradientUnits="userSpaceOnUse">
<stop stop-color="#C1CFF6"/>
<stop offset="1" stop-color="#A6BBF1"/>
</linearGradient>
<linearGradient id="paint10_linear" x1="161.728" y1="76.1529" x2="88.0674" y2="108.724" gradientUnits="userSpaceOnUse">
<stop stop-color="#D9E3FF"/>
<stop offset="1" stop-color="#C5D5FF"/>
</linearGradient>
<linearGradient id="paint11_linear" x1="138.721" y1="81.5441" x2="120.535" y2="102.509" gradientUnits="userSpaceOnUse">
<stop stop-color="#A8BFFC"/>
<stop offset="1" stop-color="#AABDF0"/>
</linearGradient>
<linearGradient id="paint12_linear" x1="111.654" y1="67.3917" x2="110.311" y2="126.023" gradientUnits="userSpaceOnUse">
<stop stop-color="#FEDAD7"/>
<stop offset="1" stop-color="#F0B3AE"/>
</linearGradient>
</defs>
</svg>
