<svg width="6" height="24" viewBox="0 0 6 24" fill="none" xmlns="http://www.w3.org/2000/svg">
<g clip-path="url(#clip0)">
<path d="M1.5 4.5C1.5 5.32843 2.17157 6 3 6C3.82843 6 4.5 5.32843 4.5 4.5C4.5 3.67157 3.82843 3 3 3C2.17157 3 1.5 3.67157 1.5 4.5Z" stroke="#2C343F" stroke-miterlimit="10"/>
<path d="M1.5 12C1.5 12.8284 2.17157 13.5 3 13.5C3.82843 13.5 4.5 12.8284 4.5 12C4.5 11.1716 3.82843 10.5 3 10.5C2.17157 10.5 1.5 11.1716 1.5 12Z" stroke="#2C343F" stroke-miterlimit="10"/>
<path d="M1.5 19.5C1.5 20.3284 2.17157 21 3 21C3.82843 21 4.5 20.3284 4.5 19.5C4.5 18.6716 3.82843 18 3 18C2.17157 18 1.5 18.6716 1.5 19.5Z" stroke="#2C343F" stroke-miterlimit="10"/>
</g>
<defs>
<clipPath id="clip0">
<rect width="24" height="5" fill="white" transform="translate(5.5) rotate(90)"/>
</clipPath>
</defs>
</svg>
