<svg width="24" height="24" viewBox="0 0 24 24" fill="none" xmlns="http://www.w3.org/2000/svg">
<path d="M18.2868 1.875H17.206L15.5772 3.65398L14.2766 5.07432L10.3611 9.35096V10.6125H13.1578V16.525C13.1578 17.2401 13.2456 17.8964 13.4128 18.4897C13.5434 18.9503 13.7224 19.3728 13.9463 19.7541C14.7541 19.3132 15.4811 18.7377 16.1003 18.058C16.1086 18.0488 16.1169 18.0389 16.1259 18.0297C16.9233 17.1451 17.5391 16.0856 17.9095 14.9126C17.9959 14.6397 18.0684 14.3612 18.1279 14.0769C18.246 13.5085 18.3082 12.9188 18.3082 12.3143V6.4564V1.875H18.2868Z" fill="#2C343F"/>
<path d="M13.1572 16.525V10.6126H10.3605V9.351L14.276 5.07437C13.0487 4.32593 11.6216 3.88721 10.091 3.88721C5.65646 3.88721 2.04362 7.49052 1.88122 11.9975H1.875V20.735H9.83112C9.91751 20.7379 10.0046 20.74 10.0917 20.74C10.1822 20.74 10.272 20.7386 10.3612 20.735H10.3957V20.7336C11.6762 20.6854 12.8801 20.3353 13.9464 19.7534C13.4336 18.8823 13.1572 17.7958 13.1572 16.525Z" fill="#6595F4"/>
<path d="M22.125 10.6124V6.4563H18.3069V10.6124H18.4195H22.125Z" fill="#6595F4"/>
<path d="M22.1251 17.4125H19.8965C19.0188 17.4125 18.3077 16.6832 18.3077 15.7831V12.3137C18.3077 15.5386 16.54 18.3374 13.9458 19.7535C14.8359 21.2681 16.444 22.125 18.5897 22.125H22.1251V17.4125Z" fill="#6595F4"/>
</svg>
