<svg width="24" height="24" viewBox="0 0 24 24" fill="none" xmlns="http://www.w3.org/2000/svg">
<mask id="path-1-inside-1_438:1361" fill="white">
<path fill-rule="evenodd" clip-rule="evenodd" d="M12.0309 18.653C15.8011 18.653 18.8575 15.5967 18.8575 11.8265C18.8575 8.05634 15.8011 5 12.0309 5C8.26075 5 5.20442 8.05634 5.20442 11.8265C5.20442 13.3236 5.68635 14.7082 6.50354 15.8335L4.99902 18.9999L8.23192 17.4991C9.31794 18.2279 10.6248 18.653 12.0309 18.653Z"/>
</mask>
<path d="M6.50354 15.8335L7.40676 16.2627L7.66159 15.7264L7.31269 15.2459L6.50354 15.8335ZM4.99902 18.9999L4.0958 18.5708L2.90647 21.0739L5.4201 19.907L4.99902 18.9999ZM8.23192 17.4991L8.78913 16.6688L8.32157 16.355L7.81085 16.5921L8.23192 17.4991ZM17.8575 11.8265C17.8575 15.0444 15.2488 17.653 12.0309 17.653V19.653C16.3534 19.653 19.8575 16.149 19.8575 11.8265H17.8575ZM12.0309 6C15.2488 6 17.8575 8.60862 17.8575 11.8265H19.8575C19.8575 7.50405 16.3534 4 12.0309 4V6ZM6.20442 11.8265C6.20442 8.60862 8.81304 6 12.0309 6V4C7.70847 4 4.20442 7.50405 4.20442 11.8265H6.20442ZM7.31269 15.2459C6.61538 14.2857 6.20442 13.1056 6.20442 11.8265H4.20442C4.20442 13.5417 4.75732 15.1307 5.69438 16.4211L7.31269 15.2459ZM5.90225 19.4291L7.40676 16.2627L5.60031 15.4043L4.0958 18.5708L5.90225 19.4291ZM7.81085 16.5921L4.57795 18.0929L5.4201 19.907L8.65299 18.4062L7.81085 16.5921ZM12.0309 17.653C10.8294 17.653 9.71551 17.2904 8.78913 16.6688L7.67471 18.3295C8.92036 19.1654 10.4202 19.653 12.0309 19.653V17.653Z" fill="#2C343F" mask="url(#path-1-inside-1_438:1361)"/>
<path d="M9 12L11 14L15 10" stroke="#2C343F" stroke-linecap="square"/>
</svg>
