<svg width="19" height="19" viewBox="0 0 19 19" fill="none" xmlns="http://www.w3.org/2000/svg">
<mask id="path-1-inside-1_428:2486" fill="white">
<path fill-rule="evenodd" clip-rule="evenodd" d="M9.03141 15.6527C12.8015 15.6527 15.8578 12.5965 15.8578 8.82637C15.8578 5.05627 12.8015 2 9.03141 2C5.26131 2 2.20504 5.05627 2.20504 8.82637C2.20504 10.3236 2.68709 11.7083 3.50445 12.8337L2.00024 15.9995L5.23259 14.4989C6.31857 15.2276 7.62534 15.6527 9.03141 15.6527Z"/>
</mask>
<path d="M3.50445 12.8337L4.40768 13.2629L4.66252 12.7265L4.31356 12.246L3.50445 12.8337ZM2.00024 15.9995L1.09702 15.5703L-0.0923114 18.0734L2.42132 16.9065L2.00024 15.9995ZM5.23259 14.4989L5.78979 13.6685L5.32223 13.3548L4.81152 13.5919L5.23259 14.4989ZM14.8578 8.82637C14.8578 12.0442 12.2492 14.6527 9.03141 14.6527V16.6527C13.3538 16.6527 16.8578 13.1488 16.8578 8.82637H14.8578ZM9.03141 3C12.2492 3 14.8578 5.60855 14.8578 8.82637H16.8578C16.8578 4.50398 13.3538 1 9.03141 1V3ZM3.20504 8.82637C3.20504 5.60855 5.8136 3 9.03141 3V1C4.70903 1 1.20504 4.50398 1.20504 8.82637H3.20504ZM4.31356 12.246C3.6161 11.2858 3.20504 10.1055 3.20504 8.82637H1.20504C1.20504 10.5417 1.75807 12.1309 2.69534 13.4214L4.31356 12.246ZM2.90347 16.4287L4.40768 13.2629L2.60122 12.4045L1.09702 15.5703L2.90347 16.4287ZM4.81152 13.5919L1.57917 15.0925L2.42132 16.9065L5.65367 15.406L4.81152 13.5919ZM9.03141 14.6527C7.82991 14.6527 6.71613 14.2901 5.78979 13.6685L4.6754 15.3293C5.92101 16.1651 7.42078 16.6527 9.03141 16.6527V14.6527Z" fill="#2C343F" mask="url(#path-1-inside-1_428:2486)"/>
<path d="M8.71473 5.67792C8.80454 5.40153 9.19556 5.40153 9.28537 5.67792L9.87565 7.49464C9.91582 7.61824 10.031 7.70193 10.161 7.70193H12.0712C12.3618 7.70193 12.4826 8.07382 12.2475 8.24464L10.7021 9.36743C10.597 9.44383 10.553 9.57924 10.5931 9.70284L11.1834 11.5196C11.2732 11.796 10.9569 12.0258 10.7218 11.855L9.17638 10.7322C9.07124 10.6558 8.92886 10.6558 8.82371 10.7322L7.27832 11.855C7.04321 12.0258 6.72686 11.796 6.81667 11.5196L7.40696 9.70284C7.44712 9.57924 7.40312 9.44383 7.29797 9.36743L5.75258 8.24464C5.51747 8.07382 5.6383 7.70193 5.92892 7.70193H7.83913C7.96909 7.70193 8.08428 7.61825 8.12444 7.49464L8.71473 5.67792Z" fill="#2C343F"/>
</svg>
