<svg width="28" height="28" viewBox="0 0 28 28" fill="none" xmlns="http://www.w3.org/2000/svg">
<g id="Group 1113">
<g id="Ellipse 226" filter="url(#filter0_d_426:5345)">
<circle cx="14" cy="14" r="12" fill="#F3F5F8"/>
</g>
<g id="icon">
<g id="Group 1010">
<path id="Subtract" fill-rule="evenodd" clip-rule="evenodd" d="M17.9238 10.0759L15.8381 13.6885C15.5064 14.2629 14.825 14.5096 14.2181 14.3148C14.1683 14.4624 14.1033 14.6073 14.0224 14.7474L13.7551 15.2104C14.8381 15.6448 16.1037 15.2284 16.7041 14.1885L18.7898 10.5759C19.448 9.43582 19.0574 7.97799 17.9173 7.31975C16.7772 6.66152 15.3194 7.05214 14.6611 8.19224L12.8428 11.3418C12.9471 11.3836 13.0498 11.4333 13.15 11.4912C13.348 11.6055 13.5235 11.744 13.6747 11.9008L15.5272 8.69224C15.9093 8.03043 16.7555 7.80368 17.4173 8.18578C18.0791 8.56787 18.3059 9.41411 17.9238 10.0759Z" fill="#6595F4"/>
<path id="Subtract_2" fill-rule="evenodd" clip-rule="evenodd" d="M10.1856 17.9876L12.2713 14.375C12.603 13.8005 13.2844 13.5539 13.8913 13.7487C13.941 13.6011 14.0061 13.4562 14.0869 13.3161L14.3543 12.8531C13.2713 12.4187 12.0057 12.8351 11.4053 13.875L9.31958 17.4876C8.66134 18.6277 9.05197 20.0855 10.1921 20.7437C11.3322 21.402 12.79 21.0113 13.4482 19.8712L15.2666 16.7217C15.1623 16.6799 15.0596 16.6301 14.9594 16.5723C14.7614 16.4579 14.5859 16.3195 14.4347 16.1627L12.5822 19.3712C12.2001 20.033 11.3539 20.2598 10.6921 19.8777C10.0303 19.4956 9.80351 18.6494 10.1856 17.9876Z" fill="#6595F4"/>
</g>
</g>
</g>
<defs>
<filter id="filter0_d_426:5345" x="0" y="0" width="28" height="28" filterUnits="userSpaceOnUse" color-interpolation-filters="sRGB">
<feFlood flood-opacity="0" result="BackgroundImageFix"/>
<feColorMatrix in="SourceAlpha" type="matrix" values="0 0 0 0 0 0 0 0 0 0 0 0 0 0 0 0 0 0 127 0" result="hardAlpha"/>
<feOffset/>
<feGaussianBlur stdDeviation="1"/>
<feComposite in2="hardAlpha" operator="out"/>
<feColorMatrix type="matrix" values="0 0 0 0 0.773889 0 0 0 0 0.819444 0 0 0 0 0.933333 0 0 0 1 0"/>
<feBlend mode="normal" in2="BackgroundImageFix" result="effect1_dropShadow_426:5345"/>
<feBlend mode="normal" in="SourceGraphic" in2="effect1_dropShadow_426:5345" result="shape"/>
</filter>
</defs>
</svg>
