<svg width="20" height="20" viewBox="0 0 20 20" fill="none" xmlns="http://www.w3.org/2000/svg">
<path d="M14.5834 7.91683C15.5039 7.91683 16.2501 7.17064 16.2501 6.25016C16.2501 5.32969 15.5039 4.5835 14.5834 4.5835C13.6629 4.5835 12.9167 5.32969 12.9167 6.25016C12.9167 7.17064 13.6629 7.91683 14.5834 7.91683Z" stroke="#2C343F" stroke-miterlimit="10"/>
<path d="M5.83341 15.4168C6.75389 15.4168 7.50008 14.6706 7.50008 13.7502C7.50008 12.8297 6.75389 12.0835 5.83341 12.0835C4.91294 12.0835 4.16675 12.8297 4.16675 13.7502C4.16675 14.6706 4.91294 15.4168 5.83341 15.4168Z" stroke="#2C343F" stroke-miterlimit="10"/>
<path d="M0.833252 6.25H12.9166" stroke="#2C343F" stroke-miterlimit="10"/>
<path d="M0.833252 13.75H4.16658" stroke="#2C343F" stroke-miterlimit="10"/>
<path d="M7.5 13.75H19.1667" stroke="#2C343F" stroke-miterlimit="10"/>
<path d="M15.8333 6.25H19.1666" stroke="#2C343F" stroke-miterlimit="10"/>
</svg>
