<svg width="27" height="33" viewBox="0 0 27 33" fill="none" xmlns="http://www.w3.org/2000/svg">
<g opacity="0.4">
<path d="M20.0004 1.64111H19.0547L17.6295 3.19772L16.4915 4.44052L13.0654 8.18257V9.28646H15.5125V14.4598C15.5125 15.0856 15.5893 15.6599 15.7357 16.1789C15.85 16.582 16.0066 16.9517 16.2025 17.2853C16.9093 16.8996 17.5455 16.396 18.0872 15.8013C18.0945 15.7932 18.1018 15.7845 18.1096 15.7764C18.8074 15.0025 19.3462 14.0753 19.6703 13.049C19.7459 12.8102 19.8094 12.5665 19.8614 12.3178C19.9648 11.8204 20.0192 11.3045 20.0192 10.7755V5.64984V1.64111H20.0004Z" fill="#2C343F"/>
<path d="M15.512 14.4597V9.28632H13.0649V8.18243L16.491 4.44038C15.4171 3.78549 14.1685 3.40161 12.8291 3.40161C8.94891 3.40161 5.78768 6.55451 5.64558 10.4981H5.64014V18.1435H12.6017C12.6773 18.1459 12.7535 18.1478 12.8297 18.1478C12.9089 18.1478 12.9875 18.1466 13.0655 18.1435H13.0958V18.1422C14.2162 18.1 15.2696 17.7937 16.2026 17.2845C15.7539 16.5224 15.512 15.5717 15.512 14.4597Z" fill="#6595F4"/>
<path d="M23.3589 9.28653V5.6499H20.0181V9.28653H20.1166H23.3589Z" fill="#6595F4"/>
<path d="M23.3588 15.2363H21.4087C20.6408 15.2363 20.0186 14.5982 20.0186 13.8106V10.7749C20.0186 13.5966 18.4718 16.0457 16.2019 17.2847C16.9807 18.61 18.3878 19.3598 20.2653 19.3598H23.3588V15.2363Z" fill="#6595F4"/>
</g>
<g opacity="0.4">
<path d="M2.67027 27.9523H7.47332V26.9359H3.60719C3.3918 26.9359 3.28411 26.8425 3.28411 26.6662V26.4899H7.32255V25.5149H3.28411V25.1H7.43025V24.1042H1.83027V27.2159C1.8195 27.6516 2.2395 27.9523 2.67027 27.9523ZM2.53027 31.2715H3.91949V29.3215H5.36256V31.2715H6.75179V29.3215H8.8087V28.1909H2.25027C1.75489 28.1909 1.43181 28.0872 1.0872 27.7345L-0.000488281 28.2428C0.527201 28.8755 1.28104 29.3215 2.13181 29.3215H2.53027V31.2715Z" fill="#2C343F"/>
<path d="M10.8532 29.5393H14.7624V28.4087H11.7255C11.5101 28.4087 11.4024 28.2946 11.4024 28.1079V27.4856H13.7501V26.355H11.4024V25.4941H14.4824V24.3635H10.0024V28.7406C10.0024 29.197 10.4224 29.5393 10.8532 29.5393ZM17.3147 24.0005H15.9039V26.438H14.3531V27.5893H15.9039V29.7053C15.9039 30.1617 15.8501 30.5351 15.8178 30.7321L17.0562 31.313C17.3254 30.8047 17.3147 29.9646 17.3147 29.643V24.0005Z" fill="#2C343F"/>
<path d="M20.6935 32.2003C20.6935 32.6991 21.093 33.0005 21.5465 33.0005H26.2005V29.124H24.7644V29.9035H22.1296V29.124H20.6935V32.2003ZM18.7822 25.2892H21.3738V25.8088H18.8038V27.7522C18.8038 28.2095 19.2249 28.5525 19.6461 28.5525H23.1123V27.4197H20.5747C20.3264 27.4197 20.2616 27.3157 20.2616 27.1183V26.8896H22.8315V24.1876H18.7822V25.2892ZM24.9047 28.7187C25.0235 28.2511 25.0343 28.0744 25.0343 27.482V26.7234H25.6174V27.5132C25.6174 27.9705 25.5634 28.3446 25.531 28.5421L26.7404 29.124C27.0104 28.6148 26.9996 27.773 26.9996 27.4508V24.0005H25.6174V25.5074H25.0343V24.0005H23.6522V27.5132C23.6522 27.6379 23.663 27.8769 23.5874 28.2511L24.9047 28.7187ZM22.1296 31.0051H24.7644V31.8781H22.4428C22.2052 31.8781 22.1296 31.7949 22.1296 31.5767V31.0051Z" fill="#6595F4"/>
</g>
</svg>
