<svg width="30" height="30" viewBox="0 0 30 30" fill="none" xmlns="http://www.w3.org/2000/svg">
<path fill-rule="evenodd" clip-rule="evenodd" d="M16.2678 2L16.6284 2.3464L18.9 4.52883L19.2753 4.8894L18.9 5.24996L16.6284 7.43239L16.2678 7.77879L15.575 7.05767L15.9356 6.71126L16.8547 5.82819C14.6808 5.34079 12.3994 5.58288 10.3679 6.52804C8.13022 7.56915 6.34973 9.39165 5.36109 11.6531C4.37245 13.9145 4.24372 16.4591 4.99909 18.8087C5.75446 21.1583 7.34192 23.1512 9.46316 24.4129C11.5844 25.6745 14.0934 26.118 16.5186 25.6601C18.9438 25.2021 21.1183 23.8743 22.6334 21.926C24.1485 19.9777 24.9 17.5432 24.7465 15.0799C24.5931 12.6166 23.5453 10.2941 21.8001 8.54894L22.8701 7.47898C24.8761 9.48495 26.0804 12.1544 26.2568 14.9858C26.4331 17.8172 25.5694 20.6155 23.8279 22.8549C22.0863 25.0943 19.5869 26.6206 16.7993 27.147C14.0117 27.6733 11.1279 27.1635 8.68966 25.7134C6.25146 24.2632 4.42679 21.9726 3.55855 19.2718C2.69031 16.5711 2.83828 13.6462 3.97465 11.0469C5.11101 8.44762 7.15754 6.35278 9.72965 5.1561C12.1001 4.05324 14.7665 3.78319 17.2994 4.37776L15.9356 3.06753L15.575 2.72113L16.2678 2ZM15.3677 8.43403H13.9128V9.94158C13.4262 10.0062 12.9729 10.1286 12.5577 10.3012C11.1304 10.8946 10.1388 12.1545 10.1388 13.2463C10.1388 14.3381 10.6001 15.2015 11.6269 15.7974C12.5619 16.34 13.8434 16.5466 15.2373 16.603C16.4216 16.6509 17.0845 16.8069 17.4587 17.0506C17.4881 17.0697 17.5179 17.0881 17.548 17.1066L17.5481 17.1067C17.8264 17.278 18.1178 17.4573 18.1178 18.2883C18.1178 18.4366 17.9171 18.952 17.4078 19.2515C16.9187 19.5391 16.2112 19.7641 15.4417 19.8396C13.8789 19.9931 12.4993 19.5329 12.0355 18.2883L11.7397 17.4945L9.84303 17.9896L10.1388 18.7834C10.7662 20.4671 12.3142 21.2434 13.9128 21.4616V22.984H15.3677V21.5152C15.4706 21.5092 15.5725 21.5012 15.6732 21.4913C16.725 21.388 17.7558 21.0792 18.5499 20.6123C19.3237 20.1572 19.8831 19.3981 19.8831 18.2883C19.8831 17.0847 19.646 16.3679 18.6787 15.7381C17.7844 15.1557 16.5728 14.9921 15.3333 14.942C14.042 14.8897 13.2244 14.7008 12.7589 14.4307C12.385 14.2138 12.1879 13.9425 12.1879 13.2463C12.1879 12.5501 12.6298 12.1281 13.4416 11.7905C14.211 11.4706 15.4706 11.3679 17.2417 12.1604L18.1178 12.5525L19.0545 11.0859L18.1784 10.6939C17.1826 10.2483 16.2388 10.0004 15.3677 9.91907V8.43403Z" fill="white"/>
</svg>
