<svg width="24" height="24" viewBox="0 0 24 24" fill="none" xmlns="http://www.w3.org/2000/svg">
<mask id="path-1-inside-1_438:1373" fill="white">
<path fill-rule="evenodd" clip-rule="evenodd" d="M12.0314 18.653C15.8016 18.653 18.8579 15.5967 18.8579 11.8265C18.8579 8.05634 15.8016 5 12.0314 5C8.26124 5 5.20491 8.05634 5.20491 11.8265C5.20491 13.3236 5.68684 14.7082 6.50403 15.8335L4.99951 18.9999L8.23241 17.4991C9.31843 18.2279 10.6253 18.653 12.0314 18.653Z"/>
</mask>
<path d="M6.50403 15.8335L7.40725 16.2627L7.66208 15.7264L7.31318 15.2459L6.50403 15.8335ZM4.99951 18.9999L4.09628 18.5708L2.90696 21.0739L5.42058 19.907L4.99951 18.9999ZM8.23241 17.4991L8.78962 16.6688L8.32206 16.355L7.81133 16.5921L8.23241 17.4991ZM17.8579 11.8265C17.8579 15.0444 15.2493 17.653 12.0314 17.653V19.653C16.3539 19.653 19.8579 16.149 19.8579 11.8265H17.8579ZM12.0314 6C15.2493 6 17.8579 8.60862 17.8579 11.8265H19.8579C19.8579 7.50405 16.3539 4 12.0314 4V6ZM6.20491 11.8265C6.20491 8.60862 8.81353 6 12.0314 6V4C7.70896 4 4.20491 7.50405 4.20491 11.8265H6.20491ZM7.31318 15.2459C6.61587 14.2857 6.20491 13.1056 6.20491 11.8265H4.20491C4.20491 13.5417 4.7578 15.1307 5.69487 16.4211L7.31318 15.2459ZM5.90274 19.4291L7.40725 16.2627L5.6008 15.4043L4.09628 18.5708L5.90274 19.4291ZM7.81133 16.5921L4.57844 18.0929L5.42058 19.907L8.65348 18.4062L7.81133 16.5921ZM12.0314 17.653C10.8298 17.653 9.716 17.2904 8.78962 16.6688L7.6752 18.3295C8.92085 19.1654 10.4207 19.653 12.0314 19.653V17.653Z" fill="#2C343F" mask="url(#path-1-inside-1_438:1373)"/>
<path d="M9 10H15M9 12H15M9 14H15" stroke="#2C343F" stroke-linecap="square"/>
</svg>
