<svg width="20" height="20" viewBox="0 0 20 20" fill="none" xmlns="http://www.w3.org/2000/svg">
<path fill-rule="evenodd" clip-rule="evenodd" d="M19.7971 9.75195C19.7971 15.1378 15.431 19.5039 10.0451 19.5039C8.03649 19.5039 6.1697 18.8966 4.61832 17.8557L0 19.9997L2.14921 15.4764C0.981697 13.8688 0.293158 11.8908 0.293158 9.75195C0.293158 4.3661 4.65926 0 10.0451 0C15.431 0 19.7971 4.3661 19.7971 9.75195ZM5.2002 11C5.75248 11 6.2002 10.5523 6.2002 10C6.2002 9.44771 5.75248 9 5.2002 9C4.64791 9 4.2002 9.44771 4.2002 10C4.2002 10.5523 4.64791 11 5.2002 11ZM11.0762 10C11.0762 10.5523 10.6285 11 10.0762 11C9.52389 11 9.07617 10.5523 9.07617 10C9.07617 9.44771 9.52389 9 10.0762 9C10.6285 9 11.0762 9.44771 11.0762 10ZM14.9521 11C15.5044 11 15.9521 10.5523 15.9521 10C15.9521 9.44771 15.5044 9 14.9521 9C14.3999 9 13.9521 9.44771 13.9521 10C13.9521 10.5523 14.3999 11 14.9521 11Z" fill="#6595F4"/>
</svg>
