<svg width="19" height="19" viewBox="0 0 19 19" fill="none" xmlns="http://www.w3.org/2000/svg">
<mask id="path-1-inside-1_428:2472" fill="white">
<path fill-rule="evenodd" clip-rule="evenodd" d="M9.03142 15.653C12.8016 15.653 15.8579 12.5967 15.8579 8.82652C15.8579 5.05634 12.8016 2 9.03142 2C5.26124 2 2.20491 5.05634 2.20491 8.82652C2.20491 10.3236 2.68684 11.7082 3.50403 12.8335L1.99951 15.9999L5.23241 14.4991C6.31843 15.2279 7.62528 15.653 9.03142 15.653Z"/>
</mask>
<path d="M3.50403 12.8335L4.40725 13.2627L4.66208 12.7264L4.31318 12.2459L3.50403 12.8335ZM1.99951 15.9999L1.09628 15.5708L-0.093044 18.0739L2.42058 16.907L1.99951 15.9999ZM5.23241 14.4991L5.78962 13.6688L5.32206 13.355L4.81133 13.5921L5.23241 14.4991ZM14.8579 8.82652C14.8579 12.0444 12.2493 14.653 9.03142 14.653V16.653C13.3539 16.653 16.8579 13.149 16.8579 8.82652H14.8579ZM9.03142 3C12.2493 3 14.8579 5.60862 14.8579 8.82652H16.8579C16.8579 4.50405 13.3539 1 9.03142 1V3ZM3.20491 8.82652C3.20491 5.60862 5.81353 3 9.03142 3V1C4.70896 1 1.20491 4.50405 1.20491 8.82652H3.20491ZM4.31318 12.2459C3.61587 11.2857 3.20491 10.1056 3.20491 8.82652H1.20491C1.20491 10.5417 1.7578 12.1307 2.69487 13.4211L4.31318 12.2459ZM2.90274 16.4291L4.40725 13.2627L2.6008 12.4043L1.09628 15.5708L2.90274 16.4291ZM4.81133 13.5921L1.57844 15.0929L2.42058 16.907L5.65348 15.4062L4.81133 13.5921ZM9.03142 14.653C7.82985 14.653 6.716 14.2904 5.78962 13.6688L4.6752 15.3295C5.92085 16.1654 7.42071 16.653 9.03142 16.653V14.653Z" fill="#2C343F" mask="url(#path-1-inside-1_428:2472)"/>
<circle cx="5.69995" cy="8.7998" r="1" fill="#2C343F"/>
<circle cx="9.11304" cy="8.7998" r="1" fill="#2C343F"/>
<circle cx="12.5271" cy="8.7998" r="1" fill="#2C343F"/>
</svg>
