<svg width="77" height="49" viewBox="0 0 77 49" fill="none" xmlns="http://www.w3.org/2000/svg">
<path d="M38 16.5C40.4853 16.5 42.5 14.4853 42.5 12C42.5 9.51472 40.4853 7.5 38 7.5C35.5147 7.5 33.5 9.51472 33.5 12C33.5 14.4853 35.5147 16.5 38 16.5Z" stroke="#949BAD" stroke-miterlimit="10"/>
<path d="M47.5 23.5L41.5 18.5H34.5L28.5 23.5V26.5H47.5V23.5Z" stroke="#949BAD" stroke-miterlimit="10"/>
<path d="M13.4103 39.996H16.4223V45.36H13.4103V39.996ZM12.4503 46.152H17.3823V39.204H12.4503V46.152ZM22.0743 42.42H20.2983V38.136H19.3143V48.888H20.2983V43.248H22.0743V42.42ZM30.6414 38.124V48.912H31.6254V38.124H30.6414ZM25.9494 38.952C24.3534 38.952 23.2134 40.416 23.2134 42.708C23.2134 45 24.3534 46.464 25.9494 46.464C27.5454 46.464 28.6854 45 28.6854 42.708C28.6854 40.416 27.5454 38.952 25.9494 38.952ZM25.9494 39.84C26.9934 39.84 27.7374 40.968 27.7374 42.708C27.7374 44.46 26.9934 45.588 25.9494 45.588C24.8934 45.588 24.1494 44.46 24.1494 42.708C24.1494 40.968 24.8934 39.84 25.9494 39.84ZM35.5005 40.284H36.8445V45.336C36.3885 45.36 35.9445 45.372 35.5005 45.384V40.284ZM37.7445 40.284H38.6325V39.492H33.7125V40.284H34.6005V45.408C34.1925 45.42 33.8325 45.42 33.5085 45.42L33.6045 46.236C35.0085 46.236 37.2645 46.188 38.9325 45.876L38.8725 45.156C38.5245 45.204 38.1285 45.24 37.7445 45.276V40.284ZM39.7845 42.228H38.3085V43.092H39.7845V48.324H40.7085V38.388H39.7845V42.228ZM41.8605 38.136V48.888H42.8085V38.136H41.8605ZM52.2395 38.124V48.912H53.2235V38.124H52.2395ZM47.5475 38.952C45.9515 38.952 44.8115 40.416 44.8115 42.708C44.8115 45 45.9515 46.464 47.5475 46.464C49.1435 46.464 50.2835 45 50.2835 42.708C50.2835 40.416 49.1435 38.952 47.5475 38.952ZM47.5475 39.84C48.5915 39.84 49.3355 40.968 49.3355 42.708C49.3355 44.46 48.5915 45.588 47.5475 45.588C46.4915 45.588 45.7475 44.46 45.7475 42.708C45.7475 40.968 46.4915 39.84 47.5475 39.84ZM59.0546 40.044H61.5866V39.228H55.5746V40.044H58.0706V41.412C58.0706 43.272 56.7626 45.3 55.2146 46.032L55.7906 46.824C57.0146 46.2 58.0706 44.844 58.5626 43.272C59.0786 44.748 60.1346 45.984 61.3826 46.56L61.9346 45.768C60.3506 45.096 59.0546 43.236 59.0546 41.412V40.044ZM63.0386 38.136V48.888H64.0226V38.136H63.0386Z" fill="#949BAD"/>
</svg>
