<svg width="77" height="49" viewBox="0 0 77 49" fill="none" xmlns="http://www.w3.org/2000/svg">
<path d="M38 16.5C40.4853 16.5 42.5 14.4853 42.5 12C42.5 9.51472 40.4853 7.5 38 7.5C35.5147 7.5 33.5 9.51472 33.5 12C33.5 14.4853 35.5147 16.5 38 16.5Z" fill="#6595F4" stroke="#6595F4" stroke-miterlimit="10"/>
<path d="M47.5 23.5L41.5 18.5H34.5L28.5 23.5V26.5H47.5V23.5Z" fill="#6595F4" stroke="#6595F4" stroke-miterlimit="10"/>
<path d="M13.5903 40.128H16.2183V45.24H13.5903V40.128ZM12.3663 46.224H17.4423V39.144H12.3663V46.224ZM22.0743 42.324H20.3823V38.088H19.1463V48.936H20.3823V43.344H22.0743V42.324ZM30.4614 38.076V48.948H31.7094V38.076H30.4614ZM25.9374 38.88C24.3294 38.88 23.1534 40.368 23.1534 42.696C23.1534 45.048 24.3294 46.524 25.9374 46.524C27.5574 46.524 28.7334 45.048 28.7334 42.696C28.7334 40.368 27.5574 38.88 25.9374 38.88ZM25.9374 39.996C26.8854 39.996 27.5454 41.016 27.5454 42.696C27.5454 44.4 26.8854 45.42 25.9374 45.42C25.0014 45.42 24.3414 44.4 24.3414 42.696C24.3414 41.016 25.0014 39.996 25.9374 39.996ZM35.5965 40.392H36.6885V45.252C36.3165 45.276 35.9565 45.288 35.5965 45.3V40.392ZM37.8165 40.392H38.6205V39.396H33.6885V40.392H34.4685V45.324C34.1085 45.324 33.7725 45.324 33.4725 45.324L33.6165 46.344C34.9845 46.344 37.2165 46.296 38.9085 45.96L38.8245 45.06C38.5125 45.108 38.1645 45.144 37.8165 45.18V40.392ZM39.6045 42.132H38.3205V43.224H39.6045V48.384H40.7685V38.328H39.6045V42.132ZM41.7285 38.088V48.924H42.9165V38.088H41.7285ZM52.0595 38.076V48.948H53.3075V38.076H52.0595ZM47.5355 38.88C45.9275 38.88 44.7515 40.368 44.7515 42.696C44.7515 45.048 45.9275 46.524 47.5355 46.524C49.1555 46.524 50.3315 45.048 50.3315 42.696C50.3315 40.368 49.1555 38.88 47.5355 38.88ZM47.5355 39.996C48.4835 39.996 49.1435 41.016 49.1435 42.696C49.1435 44.4 48.4835 45.42 47.5355 45.42C46.5995 45.42 45.9395 44.4 45.9395 42.696C45.9395 41.016 46.5995 39.996 47.5355 39.996ZM59.1866 40.188H61.5986V39.168H55.5266V40.188H57.9386V41.22C57.9386 43.08 56.8226 45.096 55.1426 45.876L55.8506 46.86C57.1226 46.248 58.0946 44.964 58.5746 43.452C59.0786 44.856 60.0506 46.032 61.3106 46.584L61.9946 45.612C60.3026 44.892 59.1866 43.02 59.1866 41.22V40.188ZM62.8586 38.088V48.924H64.1066V38.088H62.8586Z" fill="#6595F4"/>
</svg>
