<svg width="77" height="49" viewBox="0 0 77 49" fill="none" xmlns="http://www.w3.org/2000/svg">
<path d="M48 9V17V21H37H36.7L36.45 21.17L32 24.13V22V21H31H28V9H38H48ZM49 8H38H27V22H31V26L37 22H49V17V8Z" fill="#949BAD"/>
<path d="M43.5 13.46L32.5 13.47V13.48L43.5 13.46Z" stroke="#949BAD" stroke-miterlimit="10"/>
<path d="M41.5 16.9302L32.5 16.9402V16.9502L41.5 16.9302Z" stroke="#949BAD" stroke-miterlimit="10"/>
<path d="M30.8489 40.932H32.8769V40.128H30.8609V38.52H29.9129V40.128H27.8849V40.932H29.9129V41.424C29.9129 43.188 29.0729 45.06 27.6209 45.912L28.2089 46.656C29.2649 46.032 30.0209 44.832 30.3929 43.464C30.7889 44.748 31.5449 45.828 32.6009 46.416L33.1649 45.684C31.7249 44.892 30.8489 43.14 30.8489 41.424V40.932ZM35.9489 38.124V42.468H34.5329V38.364H33.6089V48.36H34.5329V43.284H35.9489V48.888H36.8969V38.124H35.9489ZM47.348 38.136H46.364V44.796H47.348V38.136ZM45.128 42.936C43.628 43.188 42.356 43.236 40.112 43.236V41.832H43.964V41.052H40.112V39.708H44.264V38.916H39.128V44.028H40.004C42.356 44.028 43.664 43.98 45.236 43.716L45.128 42.936ZM43.772 48.108C42.14 48.108 41.144 47.664 41.144 46.92C41.144 46.152 42.14 45.72 43.772 45.72C45.416 45.72 46.412 46.152 46.412 46.92C46.412 47.664 45.416 48.108 43.772 48.108ZM43.772 44.952C41.54 44.952 40.172 45.66 40.172 46.92C40.172 48.168 41.54 48.876 43.772 48.876C46.016 48.876 47.384 48.168 47.384 46.92C47.384 45.66 46.016 44.952 43.772 44.952Z" fill="#949BAD"/>
</svg>
