<svg width="77" height="49" viewBox="0 0 77 49" fill="none" xmlns="http://www.w3.org/2000/svg">
<path d="M42.2845 39.012H38.4805V37.98H37.4965V39.012H33.6205V39.78H42.2845V39.012ZM35.2765 46.428H40.7005V48H35.2765V46.428ZM34.3165 48.744H41.6605V45.684H34.3165V48.744ZM35.5405 41.724C35.5405 41.196 36.4165 40.896 37.9885 40.896C39.5365 40.896 40.4125 41.196 40.4125 41.724C40.4125 42.264 39.5365 42.564 37.9885 42.564C36.4165 42.564 35.5405 42.264 35.5405 41.724ZM38.4805 44.064V43.248C40.3765 43.176 41.4565 42.648 41.4565 41.724C41.4565 40.728 40.1965 40.2 37.9885 40.2C35.7565 40.2 34.5085 40.728 34.5085 41.724C34.5085 42.648 35.5765 43.176 37.4965 43.248V44.064H33.1165V44.844H42.8365V44.064H38.4805Z" fill="#949BAD"/>
<g clip-path="url(#clip0_551:2145)">
<path d="M47.5 26.5V13.5L38 7.5L28.5 13.5V26.5H35.5V22.0049C35.5 20.6287 36.62 19.5099 38 19.5099C39.38 19.5099 40.5 20.6287 40.5 22.0049V23.5V26.5H47.5Z" stroke="#949BAD" stroke-miterlimit="10"/>
</g>
<defs>
<clipPath id="clip0_551:2145">
<rect width="20" height="20" fill="white" transform="translate(28 7)"/>
</clipPath>
</defs>
</svg>
