<svg width="77" height="49" viewBox="0 0 77 49" fill="none" xmlns="http://www.w3.org/2000/svg">
<path d="M41.5 13.5L34.5 13.51V13.52L41.5 13.51V13.5Z" stroke="#949BAD" stroke-miterlimit="10" stroke-linecap="square"/>
<path d="M41.5 17L34.5 17.01V17.02L41.5 17.01V17Z" stroke="#949BAD" stroke-miterlimit="10" stroke-linecap="round"/>
<path d="M41.5 20.5L34.5 20.51V20.52L41.5 20.51V20.5Z" stroke="#949BAD" stroke-miterlimit="10" stroke-linecap="round"/>
<path d="M29.5 7.5H46.5V26.5H29.5V7.5Z" stroke="#949BAD"/>
<path d="M15.6423 40.044H18.0303V39.228H12.2103V40.044H14.6703V41.412C14.6703 43.236 13.3743 45.276 11.8383 46.044L12.4143 46.824C13.6263 46.2 14.6703 44.832 15.1623 43.26C15.6543 44.7 16.6623 45.96 17.8623 46.56L18.4263 45.768C16.8663 45.036 15.6423 43.128 15.6423 41.412V40.044ZM22.0743 42.468H20.2983V38.136H19.3143V48.888H20.2983V43.296H22.0743V42.468ZM27.6654 39.348C29.3094 39.348 30.4254 39.948 30.4254 40.896C30.4254 41.844 29.3094 42.456 27.6654 42.456C26.0334 42.456 24.9174 41.844 24.9174 40.896C24.9174 39.948 26.0334 39.348 27.6654 39.348ZM27.6654 43.248C29.9094 43.248 31.4334 42.336 31.4334 40.896C31.4334 39.456 29.9094 38.556 27.6654 38.556C25.4334 38.556 23.9094 39.456 23.9094 40.896C23.9094 42.336 25.4334 43.248 27.6654 43.248ZM32.5614 44.256H22.8174V45.06H25.3254V48.888H26.3214V45.06H29.0214V48.888H30.0174V45.06H32.5614V44.256ZM39.5805 42.528H37.7205C38.0805 41.568 38.2365 40.548 38.2365 39.492H34.0845V40.296H37.2645C37.0845 42.552 35.9325 44.484 33.6285 45.864L34.2045 46.572C35.6925 45.684 36.7245 44.568 37.3725 43.32H39.5805V48.348H40.5165V38.412H39.5805V42.528ZM41.8245 38.124V48.888H42.7605V38.124H41.8245ZM48.2315 39.06H47.2595V40.992C47.2595 43.032 45.9515 45.096 44.3675 45.852L44.9675 46.656C46.2275 46.008 47.2595 44.664 47.7515 43.044C48.2675 44.58 49.2995 45.852 50.5235 46.452L51.1115 45.66C49.5155 44.94 48.2315 42.96 48.2315 40.992V39.06ZM52.2395 38.124V48.912H53.2235V38.124H52.2395ZM57.5666 39.924H59.2826V43.536C58.7066 43.572 58.1306 43.584 57.5666 43.596V39.924ZM61.8026 43.332C61.2986 43.392 60.7706 43.44 60.2306 43.476V39.924H61.2986V39.132H55.5506V39.924H56.6066V43.62C56.1266 43.632 55.6706 43.632 55.2506 43.632L55.3586 44.448C57.2186 44.448 59.7266 44.4 61.8746 44.064L61.8026 43.332ZM57.8546 45.312H56.8706V48.648H64.0466V47.844H57.8546V45.312ZM63.5666 41.4V38.124H62.5826V46.056H63.5666V42.216H65.1506V41.4H63.5666Z" fill="#949BAD"/>
</svg>
