<svg width="20" height="20" viewBox="0 0 20 20" fill="none" xmlns="http://www.w3.org/2000/svg">
<path d="M14.5832 7.91659C15.5036 7.91659 16.2498 7.17039 16.2498 6.24992C16.2498 5.32944 15.5036 4.58325 14.5832 4.58325C13.6627 4.58325 12.9165 5.32944 12.9165 6.24992C12.9165 7.17039 13.6627 7.91659 14.5832 7.91659Z" stroke="#2C343F" stroke-miterlimit="10"/>
<path d="M5.83317 15.4166C6.75365 15.4166 7.49984 14.6704 7.49984 13.7499C7.49984 12.8294 6.75365 12.0833 5.83317 12.0833C4.9127 12.0833 4.1665 12.8294 4.1665 13.7499C4.1665 14.6704 4.9127 15.4166 5.83317 15.4166Z" stroke="#2C343F" stroke-miterlimit="10"/>
<path d="M0.833496 6.25H12.9168" stroke="#2C343F" stroke-miterlimit="10"/>
<path d="M0.833496 13.75H4.16683" stroke="#2C343F" stroke-miterlimit="10"/>
<path d="M7.5 13.75H19.1667" stroke="#2C343F" stroke-miterlimit="10"/>
<path d="M15.8335 6.25H19.1668" stroke="#2C343F" stroke-miterlimit="10"/>
</svg>
