<svg width="14" height="14" viewBox="0 0 14 14" fill="none" xmlns="http://www.w3.org/2000/svg">
<mask id="path-1-inside-1_553:5186" fill="white">
<path fill-rule="evenodd" clip-rule="evenodd" d="M7.03191 13.653C10.8021 13.653 13.8584 10.5967 13.8584 6.82652C13.8584 3.05634 10.8021 0 7.03191 0C3.26173 0 0.205394 3.05634 0.205394 6.82652C0.205394 8.32363 0.687326 9.70818 1.50451 10.8335L0 13.9999L3.23289 12.4991C4.31892 13.2279 5.62577 13.653 7.03191 13.653Z"/>
</mask>
<path d="M1.50451 10.8335L2.40774 11.2627L2.66256 10.7264L2.31367 10.2459L1.50451 10.8335ZM0 13.9999L-0.903228 13.5708L-2.09256 16.0739L0.421072 14.907L0 13.9999ZM3.23289 12.4991L3.79011 11.6688L3.32255 11.355L2.81182 11.5921L3.23289 12.4991ZM12.8584 6.82652C12.8584 10.0444 10.2498 12.653 7.03191 12.653V14.653C11.3544 14.653 14.8584 11.149 14.8584 6.82652H12.8584ZM7.03191 1C10.2498 1 12.8584 3.60862 12.8584 6.82652H14.8584C14.8584 2.50405 11.3544 -1 7.03191 -1V1ZM1.20539 6.82652C1.20539 3.60862 3.81402 1 7.03191 1V-1C2.70945 -1 -0.794606 2.50405 -0.794606 6.82652H1.20539ZM2.31367 10.2459C1.61636 9.28567 1.20539 8.10556 1.20539 6.82652H-0.794606C-0.794606 8.54171 -0.241708 10.1307 0.69536 11.4211L2.31367 10.2459ZM0.903228 14.4291L2.40774 11.2627L0.601286 10.4043L-0.903228 13.5708L0.903228 14.4291ZM2.81182 11.5921L-0.421072 13.0929L0.421072 14.907L3.65397 13.4062L2.81182 11.5921ZM7.03191 12.653C5.83034 12.653 4.71649 12.2904 3.79011 11.6688L2.67568 13.3295C3.92134 14.1654 5.42119 14.653 7.03191 14.653V12.653Z" fill="#2C343F" mask="url(#path-1-inside-1_553:5186)"/>
<path d="M4.00098 7L6.00098 9L10.001 5" stroke="#2C343F" stroke-linecap="square"/>
</svg>
