<svg width="19" height="19" viewBox="0 0 19 19" fill="none" xmlns="http://www.w3.org/2000/svg">
<mask id="path-1-inside-1_553:5194" fill="white">
<path fill-rule="evenodd" clip-rule="evenodd" d="M9.03165 15.6527C12.8018 15.6527 15.858 12.5965 15.858 8.82637C15.858 5.05627 12.8018 2 9.03165 2C5.26155 2 2.20529 5.05627 2.20529 8.82637C2.20529 10.3236 2.68733 11.7083 3.50469 12.8337L2.00049 15.9995L5.23284 14.4989C6.31881 15.2276 7.62559 15.6527 9.03165 15.6527Z"/>
</mask>
<path d="M3.50469 12.8337L4.40792 13.2629L4.66277 12.7265L4.3138 12.246L3.50469 12.8337ZM2.00049 15.9995L1.09726 15.5703L-0.0920674 18.0734L2.42156 16.9065L2.00049 15.9995ZM5.23284 14.4989L5.79003 13.6685L5.32248 13.3548L4.81177 13.5919L5.23284 14.4989ZM14.858 8.82637C14.858 12.0442 12.2495 14.6527 9.03165 14.6527V16.6527C13.354 16.6527 16.858 13.1488 16.858 8.82637H14.858ZM9.03165 3C12.2495 3 14.858 5.60855 14.858 8.82637H16.858C16.858 4.50398 13.354 1 9.03165 1V3ZM3.20529 8.82637C3.20529 5.60855 5.81384 3 9.03165 3V1C4.70927 1 1.20529 4.50398 1.20529 8.82637H3.20529ZM4.3138 12.246C3.61635 11.2858 3.20529 10.1055 3.20529 8.82637H1.20529C1.20529 10.5417 1.75832 12.1309 2.69559 13.4214L4.3138 12.246ZM2.90372 16.4287L4.40792 13.2629L2.60147 12.4045L1.09726 15.5703L2.90372 16.4287ZM4.81177 13.5919L1.57942 15.0925L2.42156 16.9065L5.65391 15.406L4.81177 13.5919ZM9.03165 14.6527C7.83015 14.6527 6.71637 14.2901 5.79003 13.6685L4.67564 15.3293C5.92125 16.1651 7.42102 16.6527 9.03165 16.6527V14.6527Z" fill="#2C343F" mask="url(#path-1-inside-1_553:5194)"/>
<path d="M8.71449 5.67816C8.80429 5.40177 9.19532 5.40177 9.28512 5.67816L9.87541 7.49488C9.91557 7.61849 10.0308 7.70218 10.1607 7.70218H12.0709C12.3616 7.70218 12.4824 8.07406 12.2473 8.24488L10.7019 9.36768C10.5967 9.44407 10.5527 9.57948 10.5929 9.70309L11.1832 11.5198C11.273 11.7962 10.9566 12.026 10.7215 11.8552L9.17614 10.7324C9.07099 10.656 8.92862 10.656 8.82347 10.7324L7.27808 11.8552C7.04296 12.026 6.72662 11.7962 6.81642 11.5198L7.40671 9.70309C7.44687 9.57948 7.40288 9.44407 7.29773 9.36768L5.75234 8.24488C5.51722 8.07406 5.63806 7.70218 5.92867 7.70218H7.83888C7.96885 7.70218 8.08404 7.61849 8.1242 7.49488L8.71449 5.67816Z" fill="#2C343F"/>
</svg>
